<svg width="33" height="41" viewBox="0 0 33 41" fill="none" xmlns="http://www.w3.org/2000/svg">
<path d="M0.503653 23.4545C0.581948 23.3737 0.675665 23.3095 0.779244 23.2657C0.882824 23.2218 0.994155 23.1992 1.10663 23.1992C1.21911 23.1992 1.33044 23.2218 1.43402 23.2657C1.5376 23.3095 1.63132 23.3737 1.70961 23.4545L15.7504 37.4737L15.7504 1.6611C15.7504 1.43264 15.8411 1.21354 16.0027 1.052C16.1642 0.890457 16.3833 0.799704 16.6118 0.799704C16.8402 0.799704 17.0593 0.890457 17.2209 1.052C17.3824 1.21354 17.4732 1.43264 17.4732 1.6611L17.4732 37.4737L31.514 23.4545C31.6799 23.33 31.885 23.2696 32.0919 23.2843C32.2987 23.299 32.4933 23.3879 32.6399 23.5345C32.7865 23.6811 32.8753 23.8757 32.89 24.0825C32.9047 24.2893 32.8443 24.4945 32.7199 24.6604L17.2148 40.1656C17.1365 40.2463 17.0428 40.3105 16.9392 40.3544C16.8356 40.3982 16.7243 40.4208 16.6118 40.4208C16.4993 40.4208 16.388 40.3982 16.2844 40.3544C16.1808 40.3105 16.0871 40.2463 16.0088 40.1656L0.503653 24.6604C0.4229 24.5821 0.358699 24.4884 0.314854 24.3848C0.27101 24.2812 0.248415 24.1699 0.248415 24.0574C0.248415 23.945 0.27101 23.8336 0.314854 23.73C0.358699 23.6265 0.422901 23.5327 0.503653 23.4545V23.4545Z" fill="#333333"/>
</svg>
