<svg width="132" height="132" viewBox="0 0 132 132" fill="none" xmlns="http://www.w3.org/2000/svg">
<circle cx="66" cy="66" r="65.5" stroke="#333333"/>
<path d="M49.5037 68.4545C49.5819 68.3737 49.6757 68.3095 49.7792 68.2657C49.8828 68.2218 49.9942 68.1992 50.1066 68.1992C50.2191 68.1992 50.3304 68.2218 50.434 68.2657C50.5376 68.3095 50.6313 68.3737 50.7096 68.4545L64.7504 82.4737L64.7504 46.6611C64.7504 46.4326 64.8411 46.2135 65.0027 46.052C65.1642 45.8905 65.3833 45.7997 65.6118 45.7997C65.8402 45.7997 66.0593 45.8905 66.2209 46.052C66.3824 46.2135 66.4732 46.4326 66.4732 46.6611L66.4732 82.4737L80.514 68.4545C80.6799 68.33 80.885 68.2696 81.0919 68.2843C81.2987 68.299 81.4933 68.3879 81.6399 68.5345C81.7865 68.6811 81.8753 68.8757 81.89 69.0825C81.9047 69.2893 81.8443 69.4945 81.7199 69.6604L66.2148 85.1656C66.1365 85.2463 66.0428 85.3105 65.9392 85.3544C65.8356 85.3982 65.7243 85.4208 65.6118 85.4208C65.4993 85.4208 65.388 85.3982 65.2844 85.3544C65.1808 85.3105 65.0871 85.2463 65.0088 85.1656L49.5037 69.6604C49.4229 69.5821 49.3587 69.4884 49.3149 69.3848C49.271 69.2812 49.2484 69.1699 49.2484 69.0574C49.2484 68.945 49.271 68.8336 49.3149 68.73C49.3587 68.6265 49.4229 68.5327 49.5037 68.4545V68.4545Z" fill="#333333"/>
</svg>
