<svg width="16" height="14" viewBox="0 0 16 14" fill="none" xmlns="http://www.w3.org/2000/svg">
<path d="M8.97864 13.2044C8.94683 13.1736 8.92153 13.1367 8.90426 13.0959C8.88699 13.0551 8.87809 13.0112 8.87809 12.9669C8.87809 12.9226 8.88699 12.8787 8.90426 12.8379C8.92153 12.7971 8.94683 12.7602 8.97864 12.7294L14.5014 7.19815L0.393376 7.19815C0.303378 7.19815 0.217066 7.1624 0.153427 7.09876C0.0897891 7.03512 0.0540378 6.94881 0.0540378 6.85881C0.0540378 6.76881 0.0897891 6.6825 0.153427 6.61886C0.217066 6.55522 0.303378 6.51947 0.393376 6.51947L14.5014 6.51947L8.97864 0.988254C8.92963 0.922907 8.90583 0.842074 8.91163 0.760596C8.91742 0.679117 8.9524 0.602462 9.01016 0.544702C9.06792 0.486943 9.14458 0.451957 9.22606 0.446166C9.30753 0.440376 9.38837 0.46417 9.45371 0.51318L15.5618 6.62127C15.5936 6.65212 15.6189 6.68904 15.6362 6.72984C15.6535 6.77065 15.6624 6.8145 15.6624 6.85881C15.6624 6.90312 15.6535 6.94698 15.6362 6.98778C15.6189 7.02859 15.5936 7.06551 15.5618 7.09635L9.45371 13.2044C9.42287 13.2363 9.38595 13.2615 9.34515 13.2788C9.30434 13.2961 9.26048 13.305 9.21618 13.305C9.17187 13.305 9.12801 13.2961 9.08721 13.2788C9.0464 13.2615 9.00948 13.2363 8.97864 13.2044Z" fill="#333333"/>
</svg>
