<svg width="27" height="23" viewBox="0 0 27 23" fill="none" xmlns="http://www.w3.org/2000/svg">
<path d="M7.07323 0.87078C9.9789 0.87078 12.8792 2.73746 13.4966 4.90958C13.952 2.84142 16.9211 0.89148 19.9119 0.89148C22.2384 0.89148 24.5775 2.07092 25.7574 5.2923C28.6577 13.213 14.5073 20.8187 13.4961 21.7598C12.485 20.5753 -1.66451 13.3492 1.23757 5.2969C2.39858 2.07552 4.7377 0.87032 7.07323 0.87078ZM7.07323 0H7.07233C4.006 0 1.59082 1.82022 0.44691 4.9933C-2.15772 12.2199 7.29958 18.5536 11.337 21.2571C11.9873 21.6927 12.7239 22.1863 12.8688 22.3399L13.4331 23L14.0613 22.4057C14.1657 22.3118 14.6486 21.9958 15.1157 21.6904C18.9875 19.1567 29.2719 12.4255 26.5463 4.9841C25.3916 1.82942 22.9732 0.0202401 19.9123 0.0202401C17.3275 0.0202401 14.7706 1.29122 13.4718 3.03508C12.1299 1.265 9.6054 0.00046 7.07323 0Z" fill="#333333"/>
</svg>
